HIERARCHY
ROOT mixamorig:Hips
{
	OFFSET 0.000000 201.639420 0.000000
	CHANNELS 6 Xposition Yposition Zposition Xrotation Yrotation Zrotation
	JOINT mixamorig:Spine
	{
		OFFSET 0.006200 19.524994 -2.481800
		CHANNELS 3 Xrotation Yrotation Zrotation
		JOINT mixamorig:Spine1
		{
			OFFSET -0.000900 22.835007 -2.825400
			CHANNELS 3 Xrotation Yrotation Zrotation
			JOINT mixamorig:Spine2
			{
				OFFSET -0.020600 26.552490 -3.193300
				CHANNELS 3 Xrotation Yrotation Zrotation
				JOINT mixamorig:Neck
				{
					OFFSET -0.060000 30.701813 1.352200
					CHANNELS 3 Xrotation Yrotation Zrotation
					JOINT mixamorig:Head
					{
						OFFSET -0.087200 22.547607 3.670900
						CHANNELS 3 Xrotation Yrotation Zrotation
						JOINT mixamorig:HeadTop_End
						{
							OFFSET -0.830600 40.355194 7.893500
							CHANNELS 3 Xrotation Yrotation Zrotation
							End Site
							{
								OFFSET 0.000000 30.592346 0.000000
							}
						}
						JOINT mixamorig:RightEye
						{
							OFFSET -6.302100 18.118591 16.197100
							CHANNELS 3 Xrotation Yrotation Zrotation
							End Site
							{
								OFFSET 0.000000 30.592346 0.000000
							}
						}
						JOINT mixamorig:LeftEye
						{
							OFFSET 6.741500 18.382690 16.401899
							CHANNELS 3 Xrotation Yrotation Zrotation
							End Site
							{
								OFFSET 0.000000 30.592346 0.000000
							}
						}
					}
				}
				JOINT mixamorig:LeftShoulder
				{
					OFFSET 11.924900 18.230499 1.425400
					CHANNELS 3 Xrotation Yrotation Zrotation
					JOINT mixamorig:LeftArm
					{
						OFFSET 25.435989 -0.697632 -5.229300
						CHANNELS 3 Xrotation Yrotation Zrotation
						JOINT mixamorig:LeftForeArm
						{
							OFFSET 54.684776 0.000000 0.000000
							CHANNELS 3 Xrotation Yrotation Zrotation
							JOINT mixamorig:LeftHand
							{
								OFFSET 55.098175 0.000000 0.000000
								CHANNELS 3 Xrotation Yrotation Zrotation
								JOINT mixamorig:LeftHandMiddle1
								{
									OFFSET 23.369751 0.000000 0.000000
									CHANNELS 3 Xrotation Yrotation Zrotation
									JOINT mixamorig:LeftHandMiddle2
									{
										OFFSET 6.378677 0.000000 0.000000
										CHANNELS 3 Xrotation Yrotation Zrotation
										JOINT mixamorig:LeftHandMiddle3
										{
											OFFSET 6.148331 0.000000 0.000000
											CHANNELS 3 Xrotation Yrotation Zrotation
											JOINT mixamorig:LeftHandMiddle4
											{
												OFFSET 6.582504 0.000000 0.000000
												CHANNELS 3 Xrotation Yrotation Zrotation
												End Site
												{
													OFFSET -1.168900 6.395691 1.028606
												}
											}
										}
									}
								}
								JOINT mixamorig:LeftHandThumb1
								{
									OFFSET 7.235672 -3.848206 5.434273
									CHANNELS 3 Xrotation Yrotation Zrotation
									JOINT mixamorig:LeftHandThumb2
									{
										OFFSET 6.568451 -3.792297 3.792300
										CHANNELS 3 Xrotation Yrotation Zrotation
										JOINT mixamorig:LeftHandThumb3
										{
											OFFSET 6.063080 -3.500519 3.500518
											CHANNELS 3 Xrotation Yrotation Zrotation
											JOINT mixamorig:LeftHandThumb4
											{
												OFFSET 4.793182 -2.767334 2.767349
												CHANNELS 3 Xrotation Yrotation Zrotation
												End Site
												{
													OFFSET 0.101639 6.054260 1.275483
												}
											}
										}
									}
								}
								JOINT mixamorig:LeftHandIndex1
								{
									OFFSET 23.101074 -0.309540 4.992809
									CHANNELS 3 Xrotation Yrotation Zrotation
									JOINT mixamorig:LeftHandIndex2
									{
										OFFSET 6.226883 0.000000 0.000000
										CHANNELS 3 Xrotation Yrotation Zrotation
										JOINT mixamorig:LeftHandIndex3
										{
											OFFSET 6.094330 0.000000 0.000000
											CHANNELS 3 Xrotation Yrotation Zrotation
											JOINT mixamorig:LeftHandIndex4
											{
												OFFSET 5.482605 0.000000 0.000000
												CHANNELS 3 Xrotation Yrotation Zrotation
												End Site
												{
													OFFSET -1.427902 5.233032 0.797164
												}
											}
										}
									}
								}
								JOINT mixamorig:LeftHandRing1
								{
									OFFSET 22.299240 0.021149 -3.964172
									CHANNELS 3 Xrotation Yrotation Zrotation
									JOINT mixamorig:LeftHandRing2
									{
										OFFSET 6.321869 0.000000 0.000000
										CHANNELS 3 Xrotation Yrotation Zrotation
										JOINT mixamorig:LeftHandRing3
										{
											OFFSET 5.899796 0.000000 0.000000
											CHANNELS 3 Xrotation Yrotation Zrotation
											JOINT mixamorig:LeftHandRing4
											{
												OFFSET 6.517899 0.000000 0.000000
												CHANNELS 3 Xrotation Yrotation Zrotation
												End Site
												{
													OFFSET -1.637299 6.232208 0.980890
												}
											}
										}
									}
								}
								JOINT mixamorig:LeftHandPinky1
								{
									OFFSET 20.463791 -0.302338 -8.562233
									CHANNELS 3 Xrotation Yrotation Zrotation
									JOINT mixamorig:LeftHandPinky2
									{
										OFFSET 6.908646 0.000000 0.000000
										CHANNELS 3 Xrotation Yrotation Zrotation
										JOINT mixamorig:LeftHandPinky3
										{
											OFFSET 4.622849 0.000000 0.000000
											CHANNELS 3 Xrotation Yrotation Zrotation
											JOINT mixamorig:LeftHandPinky4
											{
												OFFSET 5.216080 0.000000 0.000000
												CHANNELS 3 Xrotation Yrotation Zrotation
												End Site
												{
													OFFSET -0.606308 5.116241 0.814926
												}
											}
										}
									}
								}
							}
						}
					}
				}
				JOINT mixamorig:RightShoulder
				{
					OFFSET -12.001300 18.284088 1.348900
					CHANNELS 3 Xrotation Yrotation Zrotation
					JOINT mixamorig:RightArm
					{
						OFFSET -25.308500 -0.751312 -5.164599
						CHANNELS 3 Xrotation Yrotation Zrotation
						JOINT mixamorig:RightForeArm
						{
							OFFSET -54.684429 0.000000 0.000000
							CHANNELS 3 Xrotation Yrotation Zrotation
							JOINT mixamorig:RightHand
							{
								OFFSET -55.150291 0.000000 0.000000
								CHANNELS 3 Xrotation Yrotation Zrotation
								JOINT mixamorig:RightHandMiddle1
								{
									OFFSET -23.317566 0.000000 0.000000
									CHANNELS 3 Xrotation Yrotation Zrotation
									JOINT mixamorig:RightHandMiddle2
									{
										OFFSET -6.378403 0.000000 0.000000
										CHANNELS 3 Xrotation Yrotation Zrotation
										JOINT mixamorig:RightHandMiddle3
										{
											OFFSET -6.148193 0.000000 0.000000
											CHANNELS 3 Xrotation Yrotation Zrotation
											JOINT mixamorig:RightHandMiddle4
											{
												OFFSET -6.583389 0.000000 0.000000
												CHANNELS 3 Xrotation Yrotation Zrotation
												End Site
												{
													OFFSET 1.171692 6.395905 1.029786
												}
											}
										}
									}
								}
								JOINT mixamorig:RightHandThumb1
								{
									OFFSET -7.190521 -3.860474 5.435846
									CHANNELS 3 Xrotation Yrotation Zrotation
									JOINT mixamorig:RightHandThumb2
									{
										OFFSET -6.567429 -3.791718 3.791708
										CHANNELS 3 Xrotation Yrotation Zrotation
										JOINT mixamorig:RightHandThumb3
										{
											OFFSET -6.062469 -3.500153 3.500166
											CHANNELS 3 Xrotation Yrotation Zrotation
											JOINT mixamorig:RightHandThumb4
											{
												OFFSET -4.792618 -2.767029 2.767022
												CHANNELS 3 Xrotation Yrotation Zrotation
												End Site
												{
													OFFSET -0.100327 6.053253 1.276754
												}
											}
										}
									}
								}
								JOINT mixamorig:RightHandIndex1
								{
									OFFSET -23.048981 -0.310791 4.992554
									CHANNELS 3 Xrotation Yrotation Zrotation
									JOINT mixamorig:RightHandIndex2
									{
										OFFSET -6.227539 0.000000 0.000000
										CHANNELS 3 Xrotation Yrotation Zrotation
										JOINT mixamorig:RightHandIndex3
										{
											OFFSET -6.095047 0.000000 0.000000
											CHANNELS 3 Xrotation Yrotation Zrotation
											JOINT mixamorig:RightHandIndex4
											{
												OFFSET -5.484772 0.000000 0.000000
												CHANNELS 3 Xrotation Yrotation Zrotation
												End Site
												{
													OFFSET 1.420593 5.237305 0.797056
												}
											}
										}
									}
								}
								JOINT mixamorig:RightHandRing1
								{
									OFFSET -22.246323 0.020569 -3.963762
									CHANNELS 3 Xrotation Yrotation Zrotation
									JOINT mixamorig:RightHandRing2
									{
										OFFSET -6.322128 0.000000 0.000000
										CHANNELS 3 Xrotation Yrotation Zrotation
										JOINT mixamorig:RightHandRing3
										{
											OFFSET -5.900024 0.000000 0.000000
											CHANNELS 3 Xrotation Yrotation Zrotation
											JOINT mixamorig:RightHandRing4
											{
												OFFSET -6.518356 0.000000 0.000000
												CHANNELS 3 Xrotation Yrotation Zrotation
												End Site
												{
													OFFSET 1.636398 6.232697 0.982186
												}
											}
										}
									}
								}
								JOINT mixamorig:RightHandPinky1
								{
									OFFSET -20.411011 -0.303314 -8.561701
									CHANNELS 3 Xrotation Yrotation Zrotation
									JOINT mixamorig:RightHandPinky2
									{
										OFFSET -6.907349 0.000000 0.000000
										CHANNELS 3 Xrotation Yrotation Zrotation
										JOINT mixamorig:RightHandPinky3
										{
											OFFSET -4.623840 0.000000 0.000000
											CHANNELS 3 Xrotation Yrotation Zrotation
											JOINT mixamorig:RightHandPinky4
											{
												OFFSET -5.218353 0.000000 0.000000
												CHANNELS 3 Xrotation Yrotation Zrotation
												End Site
												{
													OFFSET 0.602097 5.118835 0.816273
												}
											}
										}
									}
								}
							}
						}
					}
				}
			}
		}
	}
	JOINT mixamorig:LeftUpLeg
	{
		OFFSET 18.168400 -13.561905 -0.039000
		CHANNELS 3 Xrotation Yrotation Zrotation
		JOINT mixamorig:LeftLeg
		{
			OFFSET 0.577358 -80.825211 -3.695000
			CHANNELS 3 Xrotation Yrotation Zrotation
			JOINT mixamorig:LeftFoot
			{
				OFFSET -0.577356 -83.370262 -6.520700
				CHANNELS 3 Xrotation Yrotation Zrotation
				JOINT mixamorig:LeftToeBase
				{
					OFFSET 0.750401 -20.798306 25.135401
					CHANNELS 3 Xrotation Yrotation Zrotation
					JOINT mixamorig:LeftToe_End
					{
						OFFSET -0.000500 0.001200 19.917799
						CHANNELS 3 Xrotation Yrotation Zrotation
						End Site
						{
							OFFSET 0.000000 19.917805 0.000000
						}
					}
				}
			}
		}
	}
	JOINT mixamorig:RightUpLeg
	{
		OFFSET -18.162500 -13.585098 -0.041000
		CHANNELS 3 Xrotation Yrotation Zrotation
		JOINT mixamorig:RightLeg
		{
			OFFSET -0.595024 -80.945297 -3.631900
			CHANNELS 3 Xrotation Yrotation Zrotation
			JOINT mixamorig:RightFoot
			{
				OFFSET 0.595024 -83.218193 -6.561200
				CHANNELS 3 Xrotation Yrotation Zrotation
				JOINT mixamorig:RightToeBase
				{
					OFFSET -0.753601 -20.807106 25.115000
					CHANNELS 3 Xrotation Yrotation Zrotation
					JOINT mixamorig:RightToe_End
					{
						OFFSET 0.000299 0.001700 19.918200
						CHANNELS 3 Xrotation Yrotation Zrotation
						End Site
						{
							OFFSET 0.000000 19.918203 0.000000
						}
					}
				}
			}
		}
	}
}
MOTION
Frames: 4
Frame Time: 0.033333
-0.212067 177.579285 -1.338349 -0.252321 0.000701 -1.094358 16.586696 0.257730 0.385064 20.119547 0.469852 0.900696 12.592121 0.364574 0.927905 2.981592 -0.915419 0.127353 -21.725502 3.041513 -1.451454 -0.000001 0.000000 -0.000000 -0.000001 0.000000 -0.000000 -0.000001 0.000000 -0.000000 20.445932 -17.628645 8.705100 -33.570182 -17.336507 -36.862247 -2.640503 -52.136200 -20.395437 -54.784131 -19.506901 -15.020213 0.652358 9.453931 -24.543689 0.393113 2.026188 -21.957660 0.393129 2.026189 -21.957665 -0.000004 -0.000000 0.000001 36.774555 8.584275 -16.863131 2.295212 23.044203 15.130525 0.424771 18.444381 14.528068 -0.000001 -0.000001 0.000001 0.652353 9.453931 -24.543691 0.393109 2.026189 -21.957661 0.522847 0.707777 -27.284564 0.000000 0.000000 -0.000000 0.652289 9.453794 -24.541976 0.393043 2.026055 -21.955961 0.393051 2.026034 -21.955956 0.000003 0.000001 0.000000 0.643632 9.449201 -24.541298 0.384720 2.021083 -21.956393 0.384728 2.021081 -21.956393 -0.000001 -0.000001 0.000001 18.311846 13.497347 -7.979215 -29.297205 10.275802 43.682540 -39.182476 60.008806 40.506211 -15.081112 -0.977414 14.319017 -3.492547 -2.447895 34.024512 0.778401 -2.790422 31.036991 0.777666 -2.796170 31.036509 0.000003 -0.000001 -0.000000 40.076121 0.945932 20.753844 5.156846 -21.099670 -19.108108 4.784344 -12.461133 -21.495573 -0.000001 0.000001 0.000000 18.327795 0.099140 38.977963 -3.924278 9.265838 32.256265 -5.637823 12.214588 12.777109 0.000003 0.000001 -0.000003 -12.758016 -10.091631 31.800992 -8.974640 -8.729462 30.664165 -8.961823 -8.751760 30.658373 -0.000001 0.000002 0.000001 -16.765423 -2.967974 36.666354 0.750494 -2.749767 30.591434 1.344324 -3.570206 41.053791 0.000003 -0.000000 -0.000001 -38.804173 1.195967 25.940476 50.421706 -4.780524 -8.652574 -11.391893 -8.306132 -8.869840 -3.786471 -12.891920 -1.582456 0.000000 -0.000000 0.000000 -42.122726 -11.496105 -22.261166 51.229947 5.647481 -2.817459 -10.593042 3.537729 11.838930 -6.191106 9.606944 11.787791 0.000000 -0.000000 0.000001 
-0.220345 177.568359 -1.292207 -0.252417 0.000722 -1.094295 16.586887 0.257980 0.384781 20.138452 0.470167 0.900616 12.611018 0.365108 0.927678 2.983358 -0.917256 0.126227 -21.759980 3.041528 -1.425029 -0.000004 -0.000000 -0.000000 -0.000004 -0.000000 -0.000000 -0.000004 -0.000000 -0.000000 20.446002 -17.628390 8.705194 -33.588490 -17.376611 -36.845770 -2.654385 -52.174261 -20.409401 -54.774716 -19.495390 -15.002958 0.785790 9.466357 -24.462111 0.393113 2.026188 -21.957655 0.393126 2.026190 -21.957663 0.000001 0.000001 0.000001 36.772649 8.672852 -17.000547 2.295215 23.044199 15.130525 0.051997 17.872942 14.690690 0.000001 0.000001 -0.000000 0.588970 9.477512 -24.744942 0.378622 1.989871 -21.545091 0.487383 0.676628 -27.447218 -0.000003 -0.000000 -0.000001 0.785737 9.466221 -24.460390 0.393045 2.026052 -21.955957 0.393049 2.026033 -21.955959 -0.000005 -0.000001 -0.000000 0.777074 9.461611 -24.459691 0.384725 2.021081 -21.956391 0.384721 2.021081 -21.956393 0.000000 -0.000000 0.000001 18.338657 13.516835 -7.959727 -29.354627 10.326058 43.633274 -39.180540 59.972852 40.505419 -14.970402 -1.034167 14.418582 -3.619806 -2.410905 33.915854 0.778397 -2.790420 31.036981 0.777656 -2.796170 31.036513 -0.000001 -0.000001 -0.000002 40.177188 0.842603 20.675244 5.156842 -21.099670 -19.108108 4.775471 -11.856674 -21.199574 0.000000 -0.000001 0.000003 18.371303 0.153174 39.188688 -3.857364 9.332595 31.842338 -5.622227 12.141286 12.926181 -0.000001 0.000000 0.000000 -12.898618 -10.037629 31.698222 -8.974640 -8.729463 30.664162 -8.961825 -8.751763 30.658370 -0.000000 -0.000001 -0.000000 -16.893059 -2.907039 36.569041 0.750498 -2.749766 30.591434 1.344327 -3.570205 41.053795 -0.000001 -0.000000 0.000000 -38.798797 1.176123 25.935345 50.437037 -4.781742 -8.647831 -11.408456 -8.286014 -8.882641 -3.789383 -12.992963 -1.589655 -0.000000 -0.000000 0.000000 -42.110807 -11.493802 -22.272263 51.251523 5.685268 -2.822639 -10.638783 3.569683 11.848939 -6.241597 9.672210 11.893761 -0.000001 0.000000 -0.000001 
-0.228513 177.557632 -1.245265 -0.252517 0.000710 -1.094237 16.587051 0.258263 0.384493 20.157364 0.470481 0.900535 12.629924 0.365643 0.927450 2.988567 -0.918699 0.125423 -21.812185 3.039949 -1.399375 -0.000001 0.000000 -0.000000 -0.000001 0.000000 -0.000000 -0.000001 0.000000 -0.000000 20.444450 -17.618178 8.701378 -33.607495 -17.415954 -36.828718 -2.668351 -52.212623 -20.423490 -54.765481 -19.484165 -14.986092 0.919067 9.479586 -24.379773 0.393119 2.026187 -21.957656 0.393121 2.026191 -21.957663 -0.000003 -0.000001 0.000000 36.771549 8.764702 -17.142434 2.295211 23.044201 15.130524 -0.327044 17.286104 14.849717 0.000002 -0.000001 0.000001 0.525131 9.501188 -24.946764 0.364310 1.953239 -21.130239 0.451604 0.646019 -27.611089 -0.000000 -0.000000 -0.000001 0.919001 9.479453 -24.378070 0.393047 2.026049 -21.955956 0.393051 2.026034 -21.955956 0.000001 0.000001 -0.000003 0.910355 9.474842 -24.377367 0.384722 2.021082 -21.956388 0.384716 2.021081 -21.956393 0.000002 0.000001 0.000001 18.365436 13.536321 -7.940235 -29.412024 10.376346 43.584052 -39.188726 59.931078 40.517898 -14.859403 -1.090580 14.517832 -3.746803 -2.372879 33.806728 0.778399 -2.790421 31.036987 0.777663 -2.796170 31.036513 0.000002 -0.000004 -0.000001 40.281140 0.735175 20.594619 5.156841 -21.099672 -19.108105 4.762854 -11.235992 -20.899573 -0.000002 0.000001 -0.000001 18.415025 0.207388 39.400165 -3.789543 9.399244 31.425919 -5.606422 12.068126 13.076546 -0.000005 0.000001 -0.000002 -13.038980 -9.982516 31.595205 -8.974642 -8.729462 30.664165 -8.961825 -8.751763 30.658370 -0.000000 0.000002 -0.000001 -17.020406 -2.845014 36.471537 0.750496 -2.749767 30.591434 1.344323 -3.570208 41.053795 -0.000002 -0.000001 0.000002 -38.786913 1.158749 25.933928 50.457462 -4.783351 -8.645534 -11.435940 -8.264444 -8.895583 -3.792307 -13.094009 -1.596868 0.000000 0.000000 0.000000 -42.100081 -11.491220 -22.283115 51.271583 5.723836 -2.827774 -10.681822 3.601346 11.858549 -6.292099 9.737283 11.999824 0.000000 -0.000000 0.000001 
-0.233079 177.558609 -1.172726 -0.252612 0.000542 -1.094246 16.587237 0.258574 0.384263 20.170792 0.470690 0.900420 12.643380 0.366056 0.927184 2.997482 -0.920541 0.124396 -21.870915 3.037437 -1.373764 -0.000003 -0.000000 -0.000000 -0.000003 -0.000000 -0.000000 -0.000003 -0.000000 -0.000000 20.443023 -17.608595 8.697813 -33.621449 -17.450520 -36.818005 -2.680695 -52.248492 -20.435733 -54.757248 -19.474104 -14.970999 1.043441 9.492197 -24.296371 0.393109 2.026192 -21.957656 0.393131 2.026191 -21.957668 0.000001 -0.000001 0.000000 36.772530 8.859724 -17.294070 2.295208 23.044204 15.130525 -0.718886 16.676182 15.005576 0.000000 -0.000000 0.000001 0.463431 9.524941 -25.148215 0.345875 1.914428 -20.709977 0.415059 0.615675 -27.778304 0.000001 0.000000 -0.000000 1.043381 9.492063 -24.294641 0.393045 2.026055 -21.955957 0.393052 2.026034 -21.955957 -0.000000 0.000002 0.000000 1.034742 9.487432 -24.293948 0.384719 2.021084 -21.956389 0.384727 2.021080 -21.956393 -0.000001 -0.000000 0.000002 18.394167 13.556808 -7.921648 -29.457069 10.409875 43.532559 -39.195539 59.892467 40.529318 -14.760423 -1.136999 14.627400 -3.864985 -2.335493 33.698620 0.778399 -2.790421 31.036984 0.777661 -2.796172 31.036513 0.000001 0.000000 -0.000002 40.388654 0.620812 20.507660 5.156842 -21.099672 -19.108110 4.747397 -10.589409 -20.592821 0.000000 -0.000000 0.000002 18.456595 0.261463 39.610712 -3.716074 9.464693 31.003513 -5.590164 11.994277 13.230136 0.000001 -0.000001 0.000001 -13.170365 -9.928157 31.493094 -8.974640 -8.729463 30.664165 -8.961826 -8.751760 30.658370 -0.000000 0.000001 0.000001 -17.138883 -2.783817 36.374869 0.750495 -2.749767 30.591430 1.344321 -3.570206 41.053795 0.000001 -0.000000 0.000003 -38.756259 1.145174 25.932256 50.469036 -4.787723 -8.647783 -11.474180 -8.241462 -8.906075 -3.791981 -13.192668 -1.604994 0.000000 0.000000 -0.000000 -42.067876 -11.490947 -22.293346 51.277089 5.769442 -2.835568 -10.732771 3.629858 11.875501 -6.341604 9.800690 12.103905 0.000000 -0.000000 0.000000 
